# xmcd
#
# Track frame offsets:
#	150
#	27147
#	48267
#	67602
#	86147
#	102822
#	108715
#	119907
#	127052
#	132250
#	140765
#	149082
#	154162
#	157837
#	162617
#	169705
#	178930
#	186125
#	194312
#	201000
#	208667
#	217577
#	224157
#	231240
#	236855
#	247637
#	261350
#	266475
#	270830
#	276157
#	281085
#
# Disc length: 3993 seconds
#
# Revision: 1
# Processed by: cddbd v1.5.1PL0 Copyright (c) Steve Scherf et al.
# Submitted via: CDex 1.50Beta5
#
DISCID=e10f971f
DTITLE=斉藤 学 - 38万キロの虚空
DYEAR=1900
DGENRE=Soundtrack
TTITLE0=THE FAR PLACE(ReArrange Ver.)
TTITLE1=STARDUST DANCING(ReArrange Ver.)
TTITLE2=A PACK OF CIGARETTES(ReArrange Ver.)
TTITLE3=A DAY IN THE LIFE(ReArrange Ver.)
TTITLE4=THE FAR PLACE
TTITLE5=THE DEAL
TTITLE6=MEMORIAL GLIDE
TTITLE7=SNAPPY TIME
TTITLE8=TWIRLY STEP
TTITLE9=A LAZY NIGHT
TTITLE10=LOOK OUT!
TTITLE11=LOST TRUTH
TTITLE12=A boundless universe.
TTITLE13=The advent of・・・!
TTITLE14=In the aroma of tea.
TTITLE15=STARDUST DANCING
TTITLE16=SUNDAY PRATTLE
TTITLE17=PEACEFUL TIME
TTITLE18=SHOWERING SUNSHINE
TTITLE19=IN THE MORNING LIGHT
TTITLE20=IN THE GLIDE
TTITLE21=OVER THE SKY
TTITLE22=SILENT CAUTION
TTITLE23=Here's your CHANCE!
TTITLE24=MOONLIGHT REQUIEM
TTITLE25=A PACK OF CIGARETTES
TTITLE26=FORGOTTEN MEMORY
TTITLE27=LAST CHASE
TTITLE28=WHO DID IT?
TTITLE29=IN A LEAFY SHADE
TTITLE30=A DAY IN THE LIFE
EXTD=
EXTT0=
EXTT1=
EXTT2=
EXTT3=
EXTT4=
EXTT5=
EXTT6=
EXTT7=
EXTT8=
EXTT9=
EXTT10=
EXTT11=
EXTT12=
EXTT13=
EXTT14=
EXTT15=
EXTT16=
EXTT17=
EXTT18=
EXTT19=
EXTT20=
EXTT21=
EXTT22=
EXTT23=
EXTT24=
EXTT25=
EXTT26=
EXTT27=
EXTT28=
EXTT29=
EXTT30=
PLAYORDER=
